HIERARCHY
ROOT Hips
{
	OFFSET 0.000000 0.000000 0.000000
	CHANNELS 6 Xposition Yposition Zposition Zrotation Yrotation Xrotation 
	JOINT LeftUpLeg_virtual
	{
		OFFSET 0.000000 0.000000 0.000000
		CHANNELS 3 Zrotation Yrotation Xrotation
		JOINT LeftUpLeg
		{
			OFFSET 10.205400 -3.823500 0.155100
			CHANNELS 3 Zrotation Yrotation Xrotation
			JOINT LeftLeg
			{
				OFFSET 0.708757 -12.982077 0.567790
				CHANNELS 3 Zrotation Yrotation Xrotation
				JOINT LeftFoot
				{
					OFFSET -0.708756 -10.717838 -2.184338
					CHANNELS 3 Zrotation Yrotation Xrotation
					JOINT LeftToeBase
					{
						OFFSET 0.108149 -7.191104 7.560241
						CHANNELS 3 Zrotation Yrotation Xrotation
						End Site
						{
							OFFSET 0.000000 0.000000 0.000000
						}
					}
				}
			}
		}
	}
	JOINT RightUpLeg_virtual
	{
		OFFSET 0.000000 0.000000 0.000000
		CHANNELS 3 Zrotation Yrotation Xrotation
		JOINT RightUpLeg
		{
			OFFSET -10.205400 -3.823500 0.005500
			CHANNELS 3 Zrotation Yrotation Xrotation
			JOINT RightLeg
			{
				OFFSET -0.708756 -12.982134 0.610632
				CHANNELS 3 Zrotation Yrotation Xrotation
				JOINT RightFoot
				{
					OFFSET 0.708754 -10.717769 -1.945823
					CHANNELS 3 Zrotation Yrotation Xrotation
					JOINT RightToeBase
					{
						OFFSET -0.108140 -7.191069 7.372968
						CHANNELS 3 Zrotation Yrotation Xrotation
						End Site
						{
							OFFSET 0.000000 0.000000 0.000000
						}
					}
				}
			}
		}
	}
	JOINT Spine_virtual
	{
		OFFSET 0.000000 0.000000 0.000000
		CHANNELS 3 Zrotation Yrotation Xrotation
		JOINT Spine
		{
			OFFSET 0.000000 6.876099 0.125700
			CHANNELS 3 Zrotation Yrotation Xrotation
			JOINT Spine1
			{
				OFFSET 0.000000 8.022060 0.146608
				CHANNELS 3 Zrotation Yrotation Xrotation
				JOINT Spine2
				{
					OFFSET 0.000000 9.168068 0.167552
					CHANNELS 3 Zrotation Yrotation Xrotation
					JOINT Neck_virtual
					{
						OFFSET 0.000000 0.000000 0.000000
						CHANNELS 3 Zrotation Yrotation Xrotation
						JOINT Neck
						{
							OFFSET 0.000000 10.314075 0.188496
							CHANNELS 3 Zrotation Yrotation Xrotation
							JOINT Head
							{
								OFFSET 0.000000 7.643700 -2.377400
								CHANNELS 3 Zrotation Yrotation Xrotation
								End Site
								{
									OFFSET 0.000000 0.000000 0.000000
								}
							}
						}
					}
					JOINT LeftShoulder_virtual
					{
						OFFSET 0.000000 0.000000 0.000000
						CHANNELS 3 Zrotation Yrotation Xrotation
						JOINT LeftShoulder
						{
							OFFSET 4.392200 8.824978 0.174984
							CHANNELS 3 Zrotation Yrotation Xrotation
							JOINT LeftArm
							{
								OFFSET 8.771219 -2.981674 -0.026999
								CHANNELS 3 Zrotation Yrotation Xrotation
								JOINT LeftForeArm
								{
									OFFSET 8.512804 0.000000 -0.000000
									CHANNELS 3 Zrotation Yrotation Xrotation
									JOINT LeftHand
									{
										OFFSET 18.484802 0.000000 -0.000000
										CHANNELS 3 Zrotation Yrotation Xrotation
										End Site
										{
											OFFSET 0.000000 0.000000 0.000000
										}
									}
								}
							}
						}
					}
					JOINT RightShoulder_virtual
					{
						OFFSET 0.000000 0.000000 0.000000
						CHANNELS 3 Zrotation Yrotation Xrotation
						JOINT RightShoulder
						{
							OFFSET -4.392200 8.824993 0.141379
							CHANNELS 3 Zrotation Yrotation Xrotation
							JOINT RightArm
							{
								OFFSET -8.771282 -2.981682 -0.094208
								CHANNELS 3 Zrotation Yrotation Xrotation
								JOINT RightForeArm
								{
									OFFSET -8.494598 0.000000 0.000000
									CHANNELS 3 Zrotation Yrotation Xrotation
									JOINT RightHand
									{
										OFFSET -18.483803 0.000000 0.000001
										CHANNELS 3 Zrotation Yrotation Xrotation
										End Site
										{
											OFFSET 0.000000 0.000000 0.000000
										}
									}
								}
							}
						}
					}
				}
			}
		}
	}
}
MOTION
Frames: 7
Frame Time: 0.033333
-50.430767 27.547781 -8.747988 179.346247 35.581881 179.575700 -2.779630 -2.213825 14.316845 -3.322704 1.656409 -61.374366 12.311755 -9.491840 90.483033 -14.158234 4.222282 6.051095 0.000000 0.000000 0.000000 3.847149 -0.573942 16.212397 -4.705034 -0.485668 -65.205227 -3.717590 -1.685087 57.138989 -2.874683 7.007555 16.492979 0.000000 0.000000 0.000000 4.037674 2.583372 7.440557 4.438055 6.163681 6.047177 0.378142 -3.839273 8.602227 0.044480 -0.087257 -0.039624 0.418808 -2.605124 12.419575 9.126772 -16.598200 21.418251 0.000000 0.000000 0.000000 2.082666 -2.033183 8.159675 -1.281149 -4.296655 2.115464 -50.605729 -39.948113 11.241417 22.746934 -80.061702 -2.794038 0.000000 0.000000 0.000000 -2.013527 -0.514897 7.334980 17.732976 8.635327 4.591477 48.871322 20.138659 -16.200358 -136.307613 87.039717 -136.152390 0.000000 0.000000 0.000000 
-50.735134 28.599350 -9.012229 178.685617 37.186470 179.127749 -1.809756 -2.455484 14.547654 -6.046815 -0.196037 -58.864394 11.923133 -7.784192 87.595872 -14.503446 3.680116 5.996821 0.000000 0.000000 0.000000 3.843426 -0.803166 14.755994 -5.744922 0.099755 -59.492403 -4.436069 -1.839138 48.973160 -0.654930 6.225840 19.711627 0.000000 0.000000 0.000000 3.931924 2.535169 6.501978 4.686290 6.243231 4.942304 0.175215 -3.852143 8.943308 0.132902 -0.051685 -0.016537 0.397689 -2.572009 12.432371 9.011834 -16.852705 20.802308 0.000000 0.000000 0.000000 2.020817 -2.021094 8.189673 -1.322341 -4.235625 2.158376 -52.685815 -37.716766 14.660154 22.330325 -79.382904 -3.048917 0.000000 0.000000 0.000000 -1.978780 -0.377632 7.479624 16.483574 8.464631 4.771405 49.249144 15.370781 -13.544156 -158.523445 84.678698 -158.903449 0.000000 0.000000 0.000000 
-51.092262 29.623503 -9.228141 178.432886 38.462079 178.908500 -1.709641 -2.618862 14.695736 -7.084353 -2.199262 -55.315383 11.151325 -7.218503 84.003493 -15.452362 2.415972 2.739042 0.000000 0.000000 0.000000 4.053154 -0.531555 14.153649 -6.843994 0.592578 -54.545833 -5.078311 -2.130315 40.636204 1.275242 5.455157 23.392235 0.000000 0.000000 0.000000 3.910574 2.571869 5.478639 5.030431 6.268453 3.623182 0.055520 -3.889280 9.237596 0.163923 -0.056811 -0.033851 0.395739 -2.619967 12.474003 8.810428 -17.058604 20.318332 0.000000 0.000000 0.000000 2.011269 -2.102519 8.325388 -1.452506 -4.231475 1.989429 -54.785443 -34.521275 18.580722 21.854312 -78.974322 -3.171019 0.000000 0.000000 0.000000 -2.021937 -0.402240 7.720775 15.193368 8.311836 4.997451 49.685672 10.122662 -10.390267 -166.677393 82.130019 -167.688316 0.000000 0.000000 0.000000 
-51.447609 30.607908 -9.441015 178.711872 39.689594 179.064324 -1.360983 -2.112230 14.432541 -7.532956 -3.877464 -51.259180 11.386731 -6.571112 78.889265 -16.148468 2.135086 0.919502 0.000000 0.000000 0.000000 4.130094 0.097692 13.156597 -7.729203 0.582606 -49.805859 -5.489470 -1.884328 33.251321 3.562433 5.179935 27.482414 0.000000 0.000000 0.000000 3.883658 3.038177 4.202536 5.489783 6.147597 2.134951 0.116316 -4.018669 9.476990 0.131994 -0.132297 -0.050933 0.410855 -2.625876 12.533104 8.604059 -17.338529 19.953312 0.000000 0.000000 0.000000 2.047042 -2.167399 8.504783 -1.468654 -4.026251 1.939537 -56.588937 -30.232815 22.314663 21.554829 -79.082239 -3.468824 0.000000 0.000000 0.000000 -2.036222 -0.446208 7.884561 14.050554 8.131163 5.158616 49.914985 4.543318 -6.794265 -170.331886 79.698568 -171.989928 0.000000 0.000000 0.000000 
-51.747444 31.564369 -9.694501 178.855306 40.837971 179.083407 -1.337706 -1.512321 13.819593 -7.822446 -4.885093 -46.838996 11.687505 -5.851239 72.552250 -16.245649 2.420165 2.147855 0.000000 0.000000 0.000000 4.392974 1.042115 11.894454 -8.145372 -0.042233 -45.196639 -5.840635 -1.062234 27.157100 5.142906 4.909428 31.507379 0.000000 0.000000 0.000000 3.628628 3.365460 2.603777 5.648645 5.983019 0.577471 0.136835 -4.032483 9.809066 0.147021 -0.075274 -0.069060 0.342894 -2.629880 12.624123 8.364142 -17.454661 19.834261 0.000000 0.000000 0.000000 2.059367 -2.248297 8.702965 -1.465344 -3.621847 1.607373 -57.825502 -24.992905 25.572372 20.627441 -79.519248 -3.062494 0.000000 0.000000 0.000000 -2.107862 -0.490537 8.055474 13.220041 7.711302 5.252219 50.214376 -0.821463 -3.051170 -172.835178 77.535297 -175.137074 0.000000 0.000000 0.000000 
-51.986526 32.498734 -9.916103 179.042030 42.164404 179.354511 -1.365089 -0.879051 12.817145 -7.961648 -5.360058 -42.615415 11.974519 -5.179624 66.305427 -16.725204 2.698255 4.421041 0.000000 0.000000 0.000000 5.035417 1.667158 10.886862 -8.081680 -1.349908 -42.303005 -6.199957 0.163109 24.163210 5.645185 4.571025 33.094104 0.000000 0.000000 0.000000 3.156473 3.909957 0.743012 5.602318 5.881815 -1.122285 0.227539 -4.197777 10.061728 0.148757 -0.259028 -0.022510 0.373744 -2.567840 12.784220 8.102072 -17.497597 19.868730 0.000000 0.000000 0.000000 2.088445 -2.275713 8.920886 -1.450048 -3.069016 1.271197 -58.490216 -19.469383 28.022775 20.621548 -80.272112 -3.479483 0.000000 0.000000 0.000000 -2.108907 -0.524948 8.254670 12.842050 7.256654 5.215904 50.630942 -5.808409 0.576108 -174.122709 75.634072 -176.959738 0.000000 0.000000 0.000000 
-52.206501 33.392643 -10.088266 179.580864 43.726830 179.655108 -1.172435 -0.388874 11.750535 -8.083511 -5.719285 -38.443433 12.400015 -4.372457 60.142117 -16.752548 3.157127 7.693563 0.000000 0.000000 0.000000 5.663551 1.670851 9.957337 -7.392538 -2.004351 -39.805021 -6.020502 0.982735 23.973455 6.098742 4.485741 31.715430 0.000000 0.000000 0.000000 2.831138 4.037787 -0.823137 5.422117 5.476581 -2.545782 0.320684 -4.133651 10.309736 0.061618 -0.037585 -0.006112 0.380132 -2.645395 12.800306 7.863155 -17.318185 20.093138 0.000000 0.000000 0.000000 2.099243 -2.387789 8.927316 -1.458418 -2.557016 1.333634 -58.642870 -14.609911 29.583031 22.114588 -80.970957 -5.336581 0.000000 0.000000 0.000000 -2.104975 -0.608770 8.263059 12.846228 6.643407 5.217642 51.075335 -9.979589 3.476549 -174.795032 73.971167 -178.011218 0.000000 0.000000 0.000000 
